<svg width="14" height="13" viewBox="0 0 14 13" fill="none" xmlns="http://www.w3.org/2000/svg">
<path opacity="0.4" d="M7.72125 0.653693L9.18604 3.5973C9.29396 3.81056 9.49992 3.95866 9.73747 3.99157L13.0277 4.47077C13.2198 4.49775 13.3942 4.59912 13.512 4.7538C13.6284 4.90651 13.6785 5.10003 13.6502 5.29026C13.6271 5.44824 13.5528 5.59436 13.4389 5.70626L11.0549 8.01731C10.8805 8.17857 10.8015 8.41751 10.8436 8.65118L11.4306 11.9002C11.4931 12.2925 11.2332 12.6624 10.8436 12.7368C10.6831 12.7625 10.5186 12.7355 10.3738 12.6618L7.43895 11.1327C7.22114 11.0228 6.96385 11.0228 6.74604 11.1327L3.8112 12.6618C3.4506 12.8533 3.00379 12.723 2.80309 12.3675C2.72873 12.226 2.70241 12.0648 2.72676 11.9074L3.31373 8.65776C3.35584 8.42475 3.27622 8.1845 3.1025 8.02323L0.718432 5.7135C0.434819 5.43968 0.426264 4.98879 0.699349 4.7051C0.705271 4.69917 0.711852 4.69259 0.718432 4.68601C0.831614 4.57082 0.98033 4.49775 1.14089 4.47866L4.43107 3.99882C4.66796 3.96525 4.87393 3.81846 4.98251 3.60388L6.39465 0.653693C6.52034 0.400933 6.78092 0.243617 7.06387 0.250199H7.15205C7.3975 0.279819 7.61136 0.43187 7.72125 0.653693Z" fill="#ECD126"/>
<path d="M7.07369 11.0507C6.94626 11.0547 6.82211 11.0889 6.71044 11.1502L3.78995 12.6758C3.4326 12.8463 3.00498 12.7139 2.80463 12.3722C2.7304 12.2326 2.70347 12.0726 2.72843 11.9159L3.31174 8.67313C3.35115 8.43741 3.27233 8.19774 3.10088 8.03181L0.715748 5.72268C0.432633 5.44548 0.427378 4.9905 0.704581 4.70672C0.708522 4.70277 0.711807 4.69947 0.715748 4.69618C0.828732 4.58425 0.974559 4.5105 1.13155 4.48746L4.42449 4.00285C4.66294 3.97256 4.86986 3.82376 4.97496 3.60779L6.4063 0.620473C6.54228 0.379485 6.80306 0.235947 7.07895 0.251091C7.07369 0.446646 7.07369 10.9177 7.07369 11.0507Z" fill="#ECD126"/>
</svg>
